HIERARCHY
ROOT Hips
{
	OFFSET 0.000000 71.427986 0.000000
	CHANNELS 6 Xposition Yposition Zposition Xrotation Yrotation Zrotation
	JOINT Pelvis
	{
		OFFSET 0.000000 0.000000 0.000000
		CHANNELS 3 Xrotation Yrotation Zrotation
		JOINT LeftUpLeg
		{
			OFFSET 6.797100 -2.508499 -1.318700
			CHANNELS 3 Xrotation Yrotation Zrotation
			JOINT LeftLeg
			{
				OFFSET 0.069008 -29.241863 0.690200
				CHANNELS 3 Xrotation Yrotation Zrotation
				JOINT LeftFoot
				{
					OFFSET -0.069008 -29.568123 -0.266800
					CHANNELS 3 Xrotation Yrotation Zrotation
					JOINT LeftToeBase
					{
						OFFSET 3.145500 -8.631000 16.059900
						CHANNELS 3 Xrotation Yrotation Zrotation
						End Site
						{
							OFFSET 0.000000 18.501587 0.000000
						}
					}
				}
			}
			JOINT Left_ShortSleeve
			{
				OFFSET 0.265923 -10.480953 1.153800
				CHANNELS 3 Xrotation Yrotation Zrotation
				End Site
				{
					OFFSET 1.725763 19.823879 0.000000
				}
			}
		}
		JOINT RightUpLeg
		{
			OFFSET -6.797100 -2.508499 -1.318700
			CHANNELS 3 Xrotation Yrotation Zrotation
			JOINT RightLeg
			{
				OFFSET -0.082453 -29.241932 0.688000
				CHANNELS 3 Xrotation Yrotation Zrotation
				JOINT RightFoot
				{
					OFFSET 0.082453 -29.568058 -0.264600
					CHANNELS 3 Xrotation Yrotation Zrotation
					JOINT RightToeBase
					{
						OFFSET -3.115300 -8.682800 16.113400
						CHANNELS 3 Xrotation Yrotation Zrotation
						End Site
						{
							OFFSET 0.000000 18.567114 0.000000
						}
					}
				}
			}
			JOINT Right_ShortSleeve
			{
				OFFSET -0.265923 -10.480953 1.153800
				CHANNELS 3 Xrotation Yrotation Zrotation
				End Site
				{
					OFFSET -1.725766 19.823910 0.000000
				}
			}
		}
	}
	JOINT Spine
	{
		OFFSET 0.000000 13.368103 0.470500
		CHANNELS 3 Xrotation Yrotation Zrotation
		JOINT Spine1
		{
			OFFSET 0.147000 13.837402 0.538800
			CHANNELS 3 Xrotation Yrotation Zrotation
			JOINT Spine2
			{
				OFFSET 0.168000 16.242897 -1.435500
				CHANNELS 3 Xrotation Yrotation Zrotation
				JOINT Neck
				{
					OFFSET 0.217200 18.631500 -1.679100
					CHANNELS 3 Xrotation Yrotation Zrotation
					JOINT Head
					{
						OFFSET 0.000000 6.599396 1.385900
						CHANNELS 3 Xrotation Yrotation Zrotation
						JOINT Hat
						{
							OFFSET -0.532200 27.220596 -10.096100
							CHANNELS 3 Xrotation Yrotation Zrotation
							End Site
							{
								OFFSET 0.000000 22.029861 0.000000
							}
						}
						JOINT HairD
						{
							OFFSET -10.777400 17.437393 -1.325900
							CHANNELS 3 Xrotation Yrotation Zrotation
							JOINT HairD1
							{
								OFFSET -3.290299 -11.051193 1.062200
								CHANNELS 3 Xrotation Yrotation Zrotation
								End Site
								{
									OFFSET 0.000000 11.579437 0.000000
								}
							}
						}
						JOINT HairB
						{
							OFFSET -10.777400 17.437393 1.467900
							CHANNELS 3 Xrotation Yrotation Zrotation
							JOINT HairB1
							{
								OFFSET -1.561200 -12.956299 3.590200
								CHANNELS 3 Xrotation Yrotation Zrotation
								End Site
								{
									OFFSET 0.000000 13.534866 0.000000
								}
							}
						}
						JOINT HairA
						{
							OFFSET 9.713100 17.437393 1.467900
							CHANNELS 3 Xrotation Yrotation Zrotation
							JOINT HairA1
							{
								OFFSET 1.561200 -12.956299 3.590200
								CHANNELS 3 Xrotation Yrotation Zrotation
								End Site
								{
									OFFSET 0.000000 13.534866 0.000000
								}
							}
						}
						JOINT HairC
						{
							OFFSET 9.713100 17.437393 -1.325900
							CHANNELS 3 Xrotation Yrotation Zrotation
							JOINT HairC1
							{
								OFFSET 3.290300 -11.051193 1.062200
								CHANNELS 3 Xrotation Yrotation Zrotation
								End Site
								{
									OFFSET 0.000000 11.579437 0.000000
								}
							}
						}
					}
				}
				JOINT LeftShoulder
				{
					OFFSET 5.101800 15.108002 -2.763700
					CHANNELS 3 Xrotation Yrotation Zrotation
					JOINT LeftArm
					{
						OFFSET 9.825497 2.506317 -1.597400
						CHANNELS 3 Xrotation Yrotation Zrotation
						JOINT LeftForeArm
						{
							OFFSET 21.966244 0.000000 0.000000
							CHANNELS 3 Xrotation Yrotation Zrotation
							JOINT LeftHand
							{
								OFFSET 33.879036 0.000000 0.000000
								CHANNELS 3 Xrotation Yrotation Zrotation
								JOINT LeftHandThumb1
								{
									OFFSET 6.715286 -2.359680 3.363841
									CHANNELS 3 Xrotation Yrotation Zrotation
									JOINT LeftHandThumb2
									{
										OFFSET 2.507072 -1.447464 1.447461
										CHANNELS 3 Xrotation Yrotation Zrotation
										JOINT LeftHandThumb3
										{
											OFFSET 2.898338 -1.673355 1.673357
											CHANNELS 3 Xrotation Yrotation Zrotation
											End Site
											{
												OFFSET -0.295959 3.727692 -0.131651
											}
										}
									}
								}
								JOINT LeftHandIndex1
								{
									OFFSET 14.190811 -0.254547 3.840278
									CHANNELS 3 Xrotation Yrotation Zrotation
									JOINT LeftHandIndex2
									{
										OFFSET 3.551727 0.000000 -0.000000
										CHANNELS 3 Xrotation Yrotation Zrotation
										JOINT LeftHandIndex3
										{
											OFFSET 2.894196 0.000000 0.000000
											CHANNELS 3 Xrotation Yrotation Zrotation
											End Site
											{
												OFFSET -1.000603 2.690872 0.366626
											}
										}
									}
								}
								JOINT LeftHandMiddle1
								{
									OFFSET 13.776489 0.000000 0.000000
									CHANNELS 3 Xrotation Yrotation Zrotation
									JOINT LeftHandMiddle2
									{
										OFFSET 3.438232 0.000000 0.000000
										CHANNELS 3 Xrotation Yrotation Zrotation
										JOINT LeftHandMiddle3
										{
											OFFSET 3.691551 0.000000 0.000000
											CHANNELS 3 Xrotation Yrotation Zrotation
											End Site
											{
												OFFSET -1.082298 3.499527 0.457670
											}
										}
									}
								}
								JOINT LeftHandRing1
								{
									OFFSET 13.966164 -0.268127 -3.067488
									CHANNELS 3 Xrotation Yrotation Zrotation
									JOINT LeftHandRing2
									{
										OFFSET 3.162567 0.000000 0.000000
										CHANNELS 3 Xrotation Yrotation Zrotation
										JOINT LeftHandRing3
										{
											OFFSET 3.324348 0.000000 0.000000
											CHANNELS 3 Xrotation Yrotation Zrotation
											End Site
											{
												OFFSET -0.861900 3.184998 0.405154
											}
										}
									}
								}
								JOINT LeftHandPinky1
								{
									OFFSET 13.131393 -0.168503 -5.746925
									CHANNELS 3 Xrotation Yrotation Zrotation
									JOINT LeftHandPinky2
									{
										OFFSET 2.849182 0.000000 0.000000
										CHANNELS 3 Xrotation Yrotation Zrotation
										JOINT LeftHandPinky3
										{
											OFFSET 2.805038 0.000000 0.000000
											CHANNELS 3 Xrotation Yrotation Zrotation
											End Site
											{
												OFFSET -0.882500 2.642609 0.325652
											}
										}
									}
								}
							}
							JOINT Left_Sleeve
							{
								OFFSET 6.592125 -0.646545 0.805568
								CHANNELS 3 Xrotation Yrotation Zrotation
								End Site
								{
									OFFSET -0.000179 20.275787 -0.000000
								}
							}
						}
					}
				}
				JOINT RightShoulder
				{
					OFFSET -5.731700 15.108002 -2.763700
					CHANNELS 3 Xrotation Yrotation Zrotation
					JOINT RightArm
					{
						OFFSET -9.825497 2.506317 -1.597400
						CHANNELS 3 Xrotation Yrotation Zrotation
						JOINT RightForeArm
						{
							OFFSET -21.966242 0.000000 0.000000
							CHANNELS 3 Xrotation Yrotation Zrotation
							JOINT RightHand
							{
								OFFSET -33.879032 0.000000 0.000000
								CHANNELS 3 Xrotation Yrotation Zrotation
								JOINT RightHandThumb1
								{
									OFFSET -6.715286 -2.359680 3.363841
									CHANNELS 3 Xrotation Yrotation Zrotation
									JOINT RightHandThumb2
									{
										OFFSET -2.507072 -1.447464 1.447461
										CHANNELS 3 Xrotation Yrotation Zrotation
										JOINT RightHandThumb3
										{
											OFFSET -2.898338 -1.673355 1.673357
											CHANNELS 3 Xrotation Yrotation Zrotation
											End Site
											{
												OFFSET 0.295959 3.727692 -0.131651
											}
										}
									}
								}
								JOINT RightHandIndex1
								{
									OFFSET -14.190811 -0.254547 3.840278
									CHANNELS 3 Xrotation Yrotation Zrotation
									JOINT RightHandIndex2
									{
										OFFSET -3.551727 0.000000 -0.000000
										CHANNELS 3 Xrotation Yrotation Zrotation
										JOINT RightHandIndex3
										{
											OFFSET -2.894196 0.000000 0.000000
											CHANNELS 3 Xrotation Yrotation Zrotation
											End Site
											{
												OFFSET 1.000603 2.690872 0.366626
											}
										}
									}
								}
								JOINT RightHandMiddle1
								{
									OFFSET -13.776489 0.000000 0.000000
									CHANNELS 3 Xrotation Yrotation Zrotation
									JOINT RightHandMiddle2
									{
										OFFSET -3.438232 0.000000 0.000000
										CHANNELS 3 Xrotation Yrotation Zrotation
										JOINT RightHandMiddle3
										{
											OFFSET -3.691551 0.000000 0.000000
											CHANNELS 3 Xrotation Yrotation Zrotation
											End Site
											{
												OFFSET 1.082298 3.499527 0.457670
											}
										}
									}
								}
								JOINT RightHandRing1
								{
									OFFSET -13.966164 -0.268127 -3.067488
									CHANNELS 3 Xrotation Yrotation Zrotation
									JOINT RightHandRing2
									{
										OFFSET -3.162567 0.000000 0.000000
										CHANNELS 3 Xrotation Yrotation Zrotation
										JOINT RightHandRing3
										{
											OFFSET -3.324348 0.000000 0.000000
											CHANNELS 3 Xrotation Yrotation Zrotation
											End Site
											{
												OFFSET 0.861900 3.184998 0.405154
											}
										}
									}
								}
								JOINT RightHandPinky1
								{
									OFFSET -13.131393 -0.168503 -5.746925
									CHANNELS 3 Xrotation Yrotation Zrotation
									JOINT RightHandPinky2
									{
										OFFSET -2.849182 0.000000 0.000000
										CHANNELS 3 Xrotation Yrotation Zrotation
										JOINT RightHandPinky3
										{
											OFFSET -2.805038 0.000000 0.000000
											CHANNELS 3 Xrotation Yrotation Zrotation
											End Site
											{
												OFFSET 0.882500 2.642609 0.325652
											}
										}
									}
								}
							}
							JOINT Right_Sleeve
							{
								OFFSET -6.592125 -0.646545 0.805568
								CHANNELS 3 Xrotation Yrotation Zrotation
								End Site
								{
									OFFSET 0.000179 20.275787 -0.000000
								}
							}
						}
					}
				}
				JOINT Bind_Right_JacketString
				{
					OFFSET -3.534800 11.969597 7.200700
					CHANNELS 3 Xrotation Yrotation Zrotation
					JOINT Bind_Right_JacketString1
					{
						OFFSET -0.319900 -6.102600 2.794100
						CHANNELS 3 Xrotation Yrotation Zrotation
						End Site
						{
							OFFSET 0.000000 6.719452 0.000000
						}
					}
				}
				JOINT Bind_Left_JacketString
				{
					OFFSET 2.904800 11.969597 7.200700
					CHANNELS 3 Xrotation Yrotation Zrotation
					JOINT Bind_Left_JacketString1
					{
						OFFSET 0.364800 -5.904503 3.186800
						CHANNELS 3 Xrotation Yrotation Zrotation
						End Site
						{
							OFFSET 0.000000 6.719513 0.000000
						}
					}
				}
				JOINT HairE
				{
					OFFSET 5.915200 17.612701 -11.592200
					CHANNELS 3 Xrotation Yrotation Zrotation
					JOINT HairE1
					{
						OFFSET 0.289200 -7.171898 -1.284500
						CHANNELS 3 Xrotation Yrotation Zrotation
						End Site
						{
							OFFSET 0.000000 7.291756 0.000000
						}
					}
				}
				JOINT HairF
				{
					OFFSET -0.864800 17.612701 -11.592200
					CHANNELS 3 Xrotation Yrotation Zrotation
					JOINT HairF1
					{
						OFFSET 0.000000 -14.087097 -2.127501
						CHANNELS 3 Xrotation Yrotation Zrotation
						End Site
						{
							OFFSET 0.000000 14.246841 0.000000
						}
					}
				}
				JOINT HairG
				{
					OFFSET -8.087700 17.612701 -11.592200
					CHANNELS 3 Xrotation Yrotation Zrotation
					JOINT HairG1
					{
						OFFSET -0.293600 -6.081398 -0.910100
						CHANNELS 3 Xrotation Yrotation Zrotation
						End Site
						{
							OFFSET 0.000000 6.156120 0.000000
						}
					}
				}
			}
		}
	}
	JOINT Pouch
	{
		OFFSET 0.000000 4.394501 10.847300
		CHANNELS 3 Xrotation Yrotation Zrotation
		End Site
		{
			OFFSET 0.000000 21.880577 0.000000
		}
	}
	JOINT Bag
	{
		OFFSET -13.229000 4.813004 -0.593300
		CHANNELS 3 Xrotation Yrotation Zrotation
		End Site
		{
			OFFSET 0.000000 21.880577 0.000000
		}
	}
	JOINT OccupyGuyFacialAnim_Joint
	{
		OFFSET 1.000000 -70.206398 -1.655000
		CHANNELS 3 Xrotation Yrotation Zrotation
		End Site
		{
			OFFSET 0.000000 21.880577 0.000000
		}
	}
}
MOTION
Frames: 4
Frame Time: 0.016667
0.878955 66.587440 0.389316 -174.044941 -97.700713 -171.731351 -0.000000 0.000001 -0.000000 -23.289115 31.064844 26.416682 26.200589 -8.536010 1.004835 -6.181808 4.026248 -15.533879 0.000000 -0.000002 0.000000 -0.000002 0.000003 0.000001 -21.213475 -10.847761 -24.048587 19.153006 3.396991 -4.094935 -2.961517 8.488708 20.917931 -0.000000 -0.000000 -0.000000 0.000001 -0.000001 0.000001 7.176505 -5.625136 -4.781322 3.180249 -8.412479 -0.457313 3.240267 -8.382687 -0.141389 -11.954769 7.249580 7.049805 90.963995 78.695056 -96.836100 0.000001 -0.000000 -0.000000 0.000001 -0.000000 -0.000000 0.000001 -0.000000 -0.000000 0.000001 -0.000000 -0.000000 0.000001 0.000000 0.000000 0.000001 -0.000000 -0.000000 0.000001 0.000000 0.000000 0.000001 -0.000000 -0.000000 0.000001 -0.000000 -0.000000 4.998839 3.199391 13.148474 -41.287162 14.474971 -0.764736 0.404879 -12.304736 -0.189200 -49.608183 -4.504523 -0.286690 40.109951 -15.297175 -0.360472 5.639944 28.097740 11.338735 -0.000001 -0.000001 0.000001 6.882282 2.840033 -61.140500 8.247949 7.640021 -89.897898 0.000004 0.000001 -0.000002 -2.345525 4.688862 -62.655265 8.754184 9.897069 -87.051266 -0.000000 -0.000002 0.000002 -9.042490 10.045577 -60.766199 8.524033 9.508890 -66.892919 -0.000000 0.000002 -0.000007 -17.946771 14.755013 -51.485935 8.868347 8.666988 -84.811989 0.000000 -0.000001 -0.000001 0.000002 0.000000 0.000000 -0.697215 3.176108 -19.419913 -43.720403 41.405945 39.746220 -0.236287 135.165168 1.057686 -74.611866 -0.241660 -6.555963 0.277475 -1.521510 -1.570512 7.169043 -41.689641 -15.773507 -0.000002 0.000001 -0.000002 6.412822 -12.738401 14.389581 9.941731 -7.465137 101.743236 -0.000001 0.000001 0.000001 2.653201 -11.302338 44.730933 9.916106 -9.880655 94.351202 -0.000002 -0.000000 -0.000001 2.140161 -7.454443 61.765018 9.609234 -8.992504 89.388701 0.000001 0.000000 -0.000002 -4.886651 -23.798141 68.396162 13.518293 -7.949264 112.864949 -0.000000 0.000001 -0.000003 0.000000 0.000000 0.000000 0.000000 0.000001 0.000001 0.000000 0.000001 0.000001 0.000000 0.000001 0.000000 0.000000 0.000001 0.000000 0.000000 0.000001 0.000001 0.000000 0.000001 0.000001 0.000000 0.000001 0.000000 0.000000 0.000001 0.000000 0.000000 0.000001 0.000001 0.000000 0.000001 0.000001 -0.000000 0.000001 -0.000000 -0.000000 0.000001 -0.000000 -0.000000 0.000001 -0.000000 
0.846306 66.587891 0.389563 -174.146246 -97.778529 -171.812616 -0.000000 0.000000 0.000000 -23.230990 31.038879 26.371688 26.156858 -8.570928 0.999913 -6.176984 4.028259 -15.541520 -0.000000 -0.000000 -0.000000 0.000002 0.000000 0.000000 -21.160435 -10.799572 -24.065524 19.223330 3.292292 -4.109540 -3.042732 8.458265 20.951098 0.000000 0.000000 0.000000 0.000002 0.000001 -0.000000 7.161372 -5.659623 -4.817221 3.193036 -8.441196 -0.434101 3.256755 -8.414359 -0.119547 -11.939452 7.256003 7.066638 91.444990 78.685446 -97.309685 0.000001 0.000000 0.000000 0.000001 0.000000 0.000000 0.000001 0.000000 0.000001 0.000001 0.000000 0.000001 0.000001 0.000001 -0.000000 0.000001 0.000000 0.000001 0.000001 0.000001 -0.000000 0.000001 0.000000 0.000000 0.000001 0.000000 0.000000 4.942461 3.372592 13.150522 -41.216800 14.374481 -0.890730 0.408198 -12.293953 -0.188316 -49.593512 -4.514083 -0.289875 40.109941 -15.297179 -0.360473 5.639942 28.097739 11.338733 -0.000002 0.000001 0.000001 6.882281 2.840034 -61.140500 8.247951 7.640027 -89.897891 0.000004 0.000001 0.000000 -2.345525 4.688862 -62.655272 8.754184 9.897069 -87.051260 -0.000001 0.000002 -0.000001 -9.042487 10.045578 -60.766199 8.524032 9.508888 -66.892926 0.000000 -0.000001 -0.000002 -17.946769 14.755017 -51.485932 8.868348 8.666990 -84.811989 0.000000 -0.000001 0.000004 0.000002 0.000001 0.000000 -0.667742 3.236917 -19.377585 -43.532518 41.170540 39.610985 -0.208222 135.324598 1.024187 -74.601266 -0.328462 -6.443853 0.277472 -1.521509 -1.570514 7.169042 -41.689641 -15.773509 0.000002 -0.000002 -0.000003 6.412825 -12.738404 14.389581 9.941733 -7.465136 101.743236 -0.000002 0.000001 0.000000 2.653201 -11.302338 44.730926 9.916104 -9.880658 94.351202 0.000000 0.000001 0.000001 2.140158 -7.454445 61.765018 9.609233 -8.992504 89.388707 0.000001 0.000001 -0.000004 -4.886650 -23.798145 68.396155 13.518292 -7.949266 112.864949 -0.000000 0.000001 0.000002 0.000000 -0.000000 0.000000 0.000001 0.000001 -0.000000 0.000001 0.000001 -0.000000 0.000001 0.000001 -0.000000 0.000001 0.000001 -0.000000 0.000001 0.000001 -0.000000 0.000001 0.000001 -0.000000 0.000001 0.000001 -0.000000 0.000001 0.000001 -0.000000 0.000001 0.000001 -0.000000 0.000001 0.000001 -0.000000 -0.000000 0.000000 0.000000 -0.000000 0.000000 0.000000 -0.000000 0.000000 0.000000 
0.813804 66.588188 0.389814 -174.243972 -97.855663 -171.890398 -0.000000 0.000000 -0.000000 -23.174709 31.013953 26.328006 26.114931 -8.607018 0.995104 -6.173070 4.030625 -15.548740 0.000000 0.000002 0.000000 -0.000001 0.000003 -0.000000 -21.107950 -10.751369 -24.082147 19.293491 3.185016 -4.124165 -3.123734 8.431012 20.984494 -0.000000 0.000000 0.000000 -0.000002 -0.000001 0.000001 7.147168 -5.692483 -4.856314 3.205281 -8.468310 -0.412651 3.272587 -8.444019 -0.099792 -11.924547 7.262620 7.083636 92.002518 78.676054 -97.862629 0.000000 -0.000000 0.000000 0.000000 -0.000000 0.000000 0.000000 -0.000000 0.000000 0.000000 -0.000000 0.000000 0.000000 0.000000 0.000000 0.000000 -0.000000 0.000000 0.000000 0.000000 0.000000 0.000000 -0.000000 0.000000 0.000000 -0.000000 0.000000 4.890248 3.523471 13.153892 -41.149834 14.283753 -0.998566 0.411568 -12.282975 -0.187457 -49.578765 -4.523399 -0.293049 40.109944 -15.297179 -0.360469 5.639945 28.097744 11.338739 0.000001 -0.000001 -0.000001 6.882280 2.840036 -61.140500 8.247949 7.640026 -89.897891 0.000001 0.000001 -0.000002 -2.345529 4.688861 -62.655265 8.754185 9.897071 -87.051266 0.000001 0.000002 -0.000003 -9.042489 10.045578 -60.766192 8.524030 9.508888 -66.892919 0.000001 -0.000001 0.000001 -17.946775 14.755017 -51.485932 8.868346 8.666989 -84.811996 -0.000000 0.000000 0.000001 0.000001 0.000001 0.000000 -0.637566 3.300945 -19.333487 -43.321557 40.922573 39.468958 -0.182332 135.493960 0.993871 -74.580079 -0.410710 -6.329831 0.277474 -1.521508 -1.570513 7.169044 -41.689637 -15.773506 0.000000 0.000001 -0.000000 6.412824 -12.738401 14.389580 9.941731 -7.465135 101.743236 -0.000003 0.000001 -0.000001 2.653199 -11.302339 44.730926 9.916106 -9.880659 94.351202 0.000000 0.000002 -0.000000 2.140158 -7.454445 61.765011 9.609235 -8.992508 89.388701 0.000003 -0.000002 0.000001 -4.886653 -23.798143 68.396162 13.518293 -7.949264 112.864956 -0.000001 0.000001 -0.000001 -0.000000 -0.000000 0.000000 0.000000 -0.000001 0.000000 0.000001 -0.000000 0.000000 0.000000 -0.000001 -0.000000 0.000000 -0.000001 -0.000000 0.000000 -0.000001 0.000000 0.000001 -0.000000 -0.000000 0.000000 -0.000001 -0.000000 0.000000 -0.000001 -0.000000 0.000000 -0.000001 0.000000 0.000001 -0.000000 -0.000000 -0.000000 0.000000 -0.000000 -0.000000 0.000000 -0.000000 -0.000000 0.000000 -0.000000 
0.781481 66.588249 0.390038 -174.337915 -97.932304 -171.964465 -0.000000 0.000001 0.000000 -23.120154 30.989927 26.286386 26.074447 -8.660493 0.988914 -6.169714 4.048887 -15.553242 0.000000 0.000002 -0.000000 0.000001 -0.000000 0.000000 -21.056469 -10.703245 -24.098745 19.364353 3.077811 -4.138673 -3.204773 8.404498 21.017848 -0.000000 0.000000 0.000000 0.000003 -0.000000 0.000001 7.133832 -5.726120 -4.895224 3.217086 -8.497986 -0.386803 3.288893 -8.475682 -0.075523 -11.909484 7.269094 7.100592 92.471793 78.666936 -98.326290 0.000001 -0.000000 0.000000 0.000001 -0.000000 0.000000 0.000001 -0.000000 0.000000 0.000001 -0.000000 0.000000 0.000001 -0.000001 0.000000 0.000001 -0.000000 0.000000 0.000001 -0.000001 0.000000 0.000001 -0.000000 0.000000 0.000001 -0.000000 0.000000 4.841600 3.655649 13.158279 -41.084066 14.217994 -1.098237 0.414897 -12.271941 -0.186578 -49.563739 -4.532735 -0.296235 40.109941 -15.297175 -0.360471 5.639939 28.097740 11.338736 -0.000002 0.000001 0.000001 6.882279 2.840034 -61.140500 8.247950 7.640020 -89.897898 0.000002 0.000003 0.000000 -2.345527 4.688860 -62.655265 8.754185 9.897073 -87.051260 0.000003 0.000000 -0.000001 -9.042492 10.045578 -60.766199 8.524033 9.508887 -66.892926 0.000001 -0.000001 -0.000001 -17.946771 14.755017 -51.485928 8.868347 8.666988 -84.811982 0.000001 -0.000001 0.000001 0.000001 0.000000 0.000000 -0.606757 3.367927 -19.287862 -43.123338 40.674972 39.333014 -0.149025 135.647953 0.959553 -74.559807 -0.500112 -6.199175 0.277478 -1.521509 -1.570514 7.169043 -41.689641 -15.773513 0.000002 -0.000001 0.000002 6.412827 -12.738402 14.389580 9.941730 -7.465136 101.743242 0.000001 -0.000002 -0.000000 2.653200 -11.302339 44.730929 9.916106 -9.880660 94.351202 0.000000 0.000001 0.000001 2.140163 -7.454446 61.765018 9.609239 -8.992501 89.388707 0.000002 0.000002 -0.000002 -4.886650 -23.798145 68.396162 13.518289 -7.949268 112.864949 -0.000000 0.000000 0.000000 0.000000 0.000000 0.000000 0.000001 0.000000 0.000000 0.000001 0.000000 0.000001 0.000001 0.000000 -0.000000 0.000001 0.000000 -0.000000 0.000001 0.000000 0.000000 0.000001 0.000000 0.000000 0.000001 0.000000 -0.000000 0.000001 0.000000 -0.000000 0.000001 0.000000 0.000000 0.000001 0.000000 0.000000 -0.000000 0.000001 0.000000 -0.000000 0.000001 0.000000 -0.000000 0.000001 0.000000 
